# xmcd
#
# Track frame offsets:
#	150
#	12246
#	26776
#	40326
#	53590
#	66045
#	78337
#	90349
#	103740
#	113797
#	125868
#	137616
#	149473
#	161758
#	176392
#	188492
#	201164
#	214444
#
# Disc length: 3039 seconds
#
# Revision: 1
# Processed by: cddbd v1.5.2PL0 Copyright (c) Steve Scherf et al.
# Submitted via: audiograbber 1.83.01
#
DISCID=fc0bdd12
DTITLE=Johnny Paycheck - 18 Greatest
DYEAR=2007
DGENRE=Country
TTITLE0=Take This Job And Shove It
TTITLE1=I'm The Only Hell (Mama Ever Raised)
TTITLE2=Someone To Give My Love To
TTITLE3=Slide Off Your Satin Sheets
TTITLE4=Georgia In A Jug
TTITLE5=White Lightning
TTITLE6=Me And The I.R.S.
TTITLE7=She's All I Got
TTITLE8=Mr. Lovemaker
TTITLE9=Born Hell Raiser
TTITLE10=Song And Dance Man
TTITLE11=From Here To The Door
TTITLE12=She Thinks I Still Care
TTITLE13=A Good Year For The Roses
TTITLE14=Keep On Lovin' Me
TTITLE15=Love Is A Good Thing
TTITLE16=Take Me
TTITLE17=She's Mine
EXTD=
EXTT0=
EXTT1=
EXTT2=
EXTT3=
EXTT4=
EXTT5=
EXTT6=
EXTT7=
EXTT8=
EXTT9=
EXTT10=
EXTT11=
EXTT12=
EXTT13=
EXTT14=
EXTT15=
EXTT16=
EXTT17=
PLAYORDER=
